# xmcd CD database file
#
# Track frame offsets:
#	150
#	12238
#	25370
#	40367
#	61789
#	77014
#	90491
#	102386
#	122979
#	133389
#	153513
#
# Disc length: 2402 seconds
#
# Revision: 0
# Processed by: cddbd v1.5.2PL0 Copyright (c) Steve Scherf et al.
# Submitted via: CDex 1.70beta2
#
DISCID=8e09600b
DTITLE=Frank Morey - Made in USA
DYEAR=2006
DGENRE=Blues
TTITLE0=Must Be Hard (To Be So Pretty)
TTITLE1=Freight Train
TTITLE2=Standing On a Corner (A Love Song)
TTITLE3=Made in USA
TTITLE4=This Ol' Life (Seems To Be Taking Forever)
TTITLE5=I Stopped Believing In You Today
TTITLE6=You're My Jesus
TTITLE7=No Good
TTITLE8=Lord Have Mercy (When I Lay My Burden Down)
TTITLE9=North Atlantic Line
TTITLE10=No Evil
EXTD=YEAR: 2006
EXTT0=
EXTT1=
EXTT2=
EXTT3=
EXTT4=
EXTT5=
EXTT6=
EXTT7=
EXTT8=
EXTT9=
EXTT10=
PLAYORDER=
